<svg width="126" height="20" viewBox="0 0 126 20" fill="none" xmlns="http://www.w3.org/2000/svg">
<path fill-rule="evenodd" clip-rule="evenodd" d="M0 0H20V20H0V0ZM1.53846 18.4615H9.23077V1.53846H1.53846V18.4615ZM10.7692 1.53846V9.23077H13.8462V1.53846H10.7692ZM15.3846 1.53846V4.61538H18.4615V1.53846H15.3846ZM18.4615 6.15385H15.3846V9.23077H18.4615V6.15385ZM18.4615 10.7692H10.7692V18.4615H18.4615V10.7692Z" fill="black"/>
<path d="M37.1534 8.03977H38.9545C38.5625 5.77273 36.625 4.20455 34.1136 4.20455C31.1023 4.20455 28.9034 6.47159 28.9034 10.1875C28.9034 13.8693 31.0398 16.1591 34.1932 16.1591C37.017 16.1591 39.0341 14.3068 39.0341 11.3693V10.0455H34.4602V11.4943H37.3352C37.2955 13.3693 36.0568 14.5568 34.1932 14.5568C32.142 14.5568 30.6477 13.0057 30.6477 10.1761C30.6477 7.35795 32.1534 5.80682 34.125 5.80682C35.6705 5.80682 36.7159 6.65909 37.1534 8.03977ZM44.8026 16.1761C47.2628 16.1761 48.8707 14.375 48.8707 11.6761C48.8707 8.96023 47.2628 7.15909 44.8026 7.15909C42.3423 7.15909 40.7344 8.96023 40.7344 11.6761C40.7344 14.375 42.3423 16.1761 44.8026 16.1761ZM44.8082 14.75C43.2003 14.75 42.4503 13.3466 42.4503 11.6705C42.4503 10 43.2003 8.57955 44.8082 8.57955C46.4048 8.57955 47.1548 10 47.1548 11.6705C47.1548 13.3466 46.4048 14.75 44.8082 14.75ZM52.4659 4.36364H50.767V16H52.4659V4.36364ZM58.0185 16.1705C59.6094 16.1705 60.2344 15.1989 60.5412 14.642H60.6832V16H62.3423V4.36364H60.6435V8.6875H60.5412C60.2344 8.14773 59.6548 7.15909 58.0298 7.15909C55.9219 7.15909 54.3707 8.82386 54.3707 11.6534C54.3707 14.4773 55.8991 16.1705 58.0185 16.1705ZM58.3935 14.7216C56.8764 14.7216 56.0866 13.3864 56.0866 11.6364C56.0866 9.90341 56.8594 8.60227 58.3935 8.60227C59.8764 8.60227 60.6719 9.8125 60.6719 11.6364C60.6719 13.4716 59.8594 14.7216 58.3935 14.7216ZM68.5284 16.1761C70.4318 16.1761 71.7784 15.2386 72.1648 13.8182L70.5568 13.5284C70.25 14.3523 69.5114 14.7727 68.5455 14.7727C67.0909 14.7727 66.1136 13.8295 66.0682 12.1477H72.2727V11.5455C72.2727 8.39205 70.3864 7.15909 68.4091 7.15909C65.9773 7.15909 64.375 9.01136 64.375 11.6932C64.375 14.4034 65.9545 16.1761 68.5284 16.1761ZM66.0739 10.875C66.142 9.63636 67.0398 8.5625 68.4205 8.5625C69.7386 8.5625 70.6023 9.53977 70.608 10.875H66.0739ZM75.8565 10.8182C75.8565 9.42614 76.7088 8.63068 77.8906 8.63068C79.044 8.63068 79.7429 9.38636 79.7429 10.6534V16H81.4418V10.4489C81.4418 8.28977 80.2543 7.15909 78.4702 7.15909C77.1577 7.15909 76.2997 7.76705 75.8963 8.69318H75.7884V7.27273H74.1577V16H75.8565V10.8182ZM88.0909 16H89.8466V11.5966H92.233C92.2727 11.5966 92.3068 11.5966 92.3466 11.5966L94.7102 16H96.7102L94.1307 11.2898C95.5568 10.7614 96.267 9.57386 96.267 8.01136C96.267 5.86932 94.9375 4.36364 92.2386 4.36364H88.0909V16ZM89.8466 10.0852V5.86932H92.0511C93.7841 5.86932 94.5 6.69318 94.5 8.01136C94.5 9.32386 93.7841 10.0852 92.0739 10.0852H89.8466ZM100.807 16.1932C102.25 16.1932 103.062 15.4602 103.386 14.8068H103.455V16H105.114V10.2045C105.114 7.66477 103.114 7.15909 101.727 7.15909C100.148 7.15909 98.6932 7.79545 98.125 9.38636L99.7216 9.75C99.9716 9.13068 100.608 8.53409 101.75 8.53409C102.847 8.53409 103.409 9.10795 103.409 10.0966V10.1364C103.409 10.7557 102.773 10.7443 101.205 10.9261C99.5511 11.1193 97.858 11.5511 97.858 13.5341C97.858 15.25 99.1477 16.1932 100.807 16.1932ZM101.176 14.8295C100.216 14.8295 99.5227 14.3977 99.5227 13.5568C99.5227 12.6477 100.33 12.3239 101.312 12.1932C101.864 12.1193 103.17 11.9716 103.415 11.7273V12.8523C103.415 13.8864 102.591 14.8295 101.176 14.8295ZM111.45 7.27273H109.661V5.18182H107.962V7.27273H106.683V8.63636H107.962V13.7898C107.956 15.375 109.166 16.142 110.507 16.1136C111.047 16.108 111.411 16.0057 111.609 15.9318L111.303 14.5284C111.189 14.5511 110.979 14.6023 110.706 14.6023C110.155 14.6023 109.661 14.4205 109.661 13.4375V8.63636H111.45V7.27273ZM113.33 16H115.028V7.27273H113.33V16ZM114.188 5.92614C114.773 5.92614 115.261 5.47159 115.261 4.91477C115.261 4.35795 114.773 3.89773 114.188 3.89773C113.597 3.89773 113.114 4.35795 113.114 4.91477C113.114 5.47159 113.597 5.92614 114.188 5.92614ZM120.99 16.1761C123.45 16.1761 125.058 14.375 125.058 11.6761C125.058 8.96023 123.45 7.15909 120.99 7.15909C118.53 7.15909 116.922 8.96023 116.922 11.6761C116.922 14.375 118.53 16.1761 120.99 16.1761ZM120.996 14.75C119.388 14.75 118.638 13.3466 118.638 11.6705C118.638 10 119.388 8.57955 120.996 8.57955C122.592 8.57955 123.342 10 123.342 11.6705C123.342 13.3466 122.592 14.75 120.996 14.75Z" fill="#212121"/>
</svg>
