<svg width="20" height="20" viewBox="0 0 20 20" fill="none" xmlns="http://www.w3.org/2000/svg">
<path d="M4.55252 3.69416C6.06465 2.38388 7.99918 1.66387 10 1.66666C14.6025 1.66666 18.3334 5.3975 18.3334 10C18.3334 11.78 17.775 13.43 16.825 14.7833L14.1667 10H16.6667C16.6668 8.69302 16.2827 7.41483 15.5622 6.32438C14.8418 5.23392 13.8166 4.3793 12.6143 3.86677C11.412 3.35424 10.0856 3.20642 8.79998 3.44168C7.51435 3.67694 6.32623 4.28491 5.38335 5.19L4.55252 3.69416ZM15.4475 16.3058C13.9354 17.6161 12.0009 18.3361 10 18.3333C5.39752 18.3333 1.66669 14.6025 1.66669 10C1.66669 8.22 2.22502 6.57 3.17502 5.21666L5.83335 10H3.33335C3.33325 11.307 3.71731 12.5852 4.4378 13.6756C5.15829 14.7661 6.18341 15.6207 7.3857 16.1332C8.588 16.6458 9.91443 16.7936 11.2001 16.5583C12.4857 16.3231 13.6738 15.7151 14.6167 14.81L15.4475 16.3058Z" fill="#6B6B6B"/>
</svg>
